<?xml version="1.0" encoding="UTF-8" standalone="no"?>
<!-- Generated by graphviz version 2.38.0 (20140413.2041)
 -->

<!-- Title: packages Pages: 1 -->

<svg
   xmlns:dc="http://purl.org/dc/elements/1.1/"
   xmlns:cc="http://creativecommons.org/ns#"
   xmlns:rdf="http://www.w3.org/1999/02/22-rdf-syntax-ns#"
   xmlns:svg="http://www.w3.org/2000/svg"
   xmlns="http://www.w3.org/2000/svg"
   xmlns:sodipodi="http://sodipodi.sourceforge.net/DTD/sodipodi-0.dtd"
   xmlns:inkscape="http://www.inkscape.org/namespaces/inkscape"
   width="711pt"
   height="260pt"
   viewBox="0 0 711 260"
   id="svg4136"
   version="1.1"
   inkscape:version="0.91 r13725"
   sodipodi:docname="pack.svg">
  <metadata
     id="metadata4364">
    <rdf:RDF>
      <cc:Work
         rdf:about="">
        <dc:format>image/svg+xml</dc:format>
        <dc:type
           rdf:resource="http://purl.org/dc/dcmitype/StillImage" />
        <dc:title></dc:title>
      </cc:Work>
    </rdf:RDF>
  </metadata>
  <defs
     id="defs4362" />
  <sodipodi:namedview
     pagecolor="#ffffff"
     bordercolor="#666666"
     borderopacity="1"
     objecttolerance="10"
     gridtolerance="10"
     guidetolerance="10"
     inkscape:pageopacity="0"
     inkscape:pageshadow="2"
     inkscape:window-width="1920"
     inkscape:window-height="1030"
     id="namedview4360"
     showgrid="false"
     inkscape:zoom="1.4165963"
     inkscape:cx="335.74571"
     inkscape:cy="162.5"
     inkscape:window-x="0"
     inkscape:window-y="0"
     inkscape:window-maximized="1"
     inkscape:current-layer="svg4136"
     fit-margin-top="0"
     fit-margin-left="0"
     fit-margin-right="0"
     fit-margin-bottom="0" />
  <g
     id="graph0"
     class="graph"
     transform="translate(4,256)">
    <title
       id="title4139">packages</title>
    <polygon
       points="707,4 -4,4 -4,4 -4,-256 707,-256 "
       id="polygon4141"
       style="fill:#ffffff;stroke:none" />
    <!-- 0 -->
    <g
       id="node1"
       class="node">
      <title
         id="title4144">0</title>
      <polygon
         points="314.5,-72 314.5,-108 314.5,-108 249.5,-108 249.5,-72 "
         id="polygon4146"
         style="fill:none;stroke:#000000" />
      <text
         x="282"
         y="-86.300003"
         font-size="14.00"
         id="text4148"
         style="font-size:14px;font-family:Times, serif;text-anchor:middle">eastereig</text>
    </g>
    <!-- 5 -->
    <g
       id="node6"
       class="node">
      <title
         id="title4151">5</title>
      <polygon
         points="324.5,-144 324.5,-180 324.5,-180 239.5,-180 239.5,-144 "
         id="polygon4153"
         style="fill:none;stroke:#000000" />
      <text
         x="282"
         y="-158.3"
         font-size="14.00"
         id="text4155"
         style="font-size:14px;font-family:Times, serif;text-anchor:middle">eastereig.eig</text>
    </g>
    <!-- 0&#45;&gt;5 -->
    <g
       id="edge1"
       class="edge">
      <title
         id="title4158">0-&gt;5</title>
      <path
         d="m 276.084,-108.303 c -0.795,-7.714 -1.022,-16.985 -0.679,-25.585"
         id="path4160"
         inkscape:connector-curvature="0"
         style="fill:none;stroke:#000000" />
      <polygon
         points="275.407,-133.92 275.407,-133.92 275.407,-133.92 275.756,-138.908 279.896,-133.606 276.105,-143.896 276.105,-143.896 276.105,-143.896 270.918,-134.234 275.756,-138.908 "
         id="polygon4162"
         style="fill:#000000;stroke:#000000" />
    </g>
    <!-- 7 -->
    <g
       id="node8"
       class="node">
      <title
         id="title4165">7</title>
      <polygon
         points="530.5,-144 530.5,-180 530.5,-180 449.5,-180 449.5,-144 "
         id="polygon4167"
         style="fill:none;stroke:#000000" />
      <text
         x="490"
         y="-158.3"
         font-size="14.00"
         id="text4169"
         style="font-size:14px;font-family:Times, serif;text-anchor:middle">eastereig.ep</text>
    </g>
    <!-- 0&#45;&gt;7 -->
    <g
       id="edge2"
       class="edge">
      <title
         id="title4172">0-&gt;7</title>
      <path
         d="m 314.694,-101.924 c 30.026,-10.041 76.003,-25.442 125.119,-42.019"
         id="path4174"
         inkscape:connector-curvature="0"
         style="fill:none;stroke:#000000" />
      <polygon
         points="439.871,-143.963 439.871,-143.963 439.871,-143.963 444.608,-145.562 441.311,-139.699 449.346,-147.162 449.346,-147.162 449.346,-147.162 438.432,-148.226 444.608,-145.562 "
         id="polygon4176"
         style="fill:#000000;stroke:#000000" />
    </g>
    <!-- 9 -->
    <g
       id="node10"
       class="node">
      <title
         id="title4179">9</title>
      <polygon
         points="431.5,-144 431.5,-180 431.5,-180 342.5,-180 342.5,-144 "
         id="polygon4181"
         style="fill:none;stroke:#000000" />
      <text
         x="387"
         y="-158.3"
         font-size="14.00"
         id="text4183"
         style="font-size:14px;font-family:Times, serif;text-anchor:middle">eastereig.loci</text>
    </g>
    <!-- 0&#45;&gt;9 -->
    <g
       id="edge3"
       class="edge">
      <title
         id="title4186">0-&gt;9</title>
      <path
         d="m 307.686,-108.124 c 13.602,-9.068 30.486,-20.324 45.175,-30.117"
         id="path4188"
         inkscape:connector-curvature="0"
         style="fill:none;stroke:#000000" />
      <polygon
         points="352.895,-138.263 352.895,-138.263 352.895,-138.263 357.055,-141.037 355.391,-134.519 361.215,-143.81 361.215,-143.81 361.215,-143.81 350.399,-142.007 357.055,-141.037 "
         id="polygon4190"
         style="fill:#000000;stroke:#000000" />
    </g>
    <!-- 10 -->
    <g
       id="node11"
       class="node">
      <title
         id="title4193">10</title>
      <polygon
         points="95,-144 95,-180 95,-180 13,-180 13,-144 "
         id="polygon4195"
         style="fill:none;stroke:#000000" />
      <text
         x="54"
         y="-158.3"
         font-size="14.00"
         id="text4197"
         style="font-size:14px;font-family:Times, serif;text-anchor:middle">eastereig.op</text>
    </g>
    <!-- 0&#45;&gt;10 -->
    <g
       id="edge4"
       class="edge">
      <title
         id="title4200">0-&gt;10</title>
      <path
         d="M 249.19,-98.5854 C 213.828,-107.975 156.218,-124.703 105.107,-140.798"
         id="path4202"
         inkscape:connector-curvature="0"
         style="fill:none;stroke:#000000" />
      <polygon
         points="104.847,-140.881 104.847,-140.881 104.847,-140.881 100.08,-142.39 106.205,-145.171 95.3133,-143.9 95.3133,-143.9 95.3133,-143.9 103.488,-136.591 100.08,-142.39 "
         id="polygon4204"
         style="fill:#000000;stroke:#000000" />
    </g>
    <!-- 11 -->
    <g
       id="node12"
       class="node">
      <title
         id="title4207">11</title>
      <polygon
         points="221,-144 221,-180 221,-180 113,-180 113,-144 "
         id="polygon4209"
         style="fill:none;stroke:#000000" />
      <text
         x="167"
         y="-158.3"
         font-size="14.00"
         id="text4211"
         style="font-size:14px;font-family:Times, serif;text-anchor:middle">eastereig.options</text>
    </g>
    <!-- 0&#45;&gt;11 -->
    <g
       id="edge5"
       class="edge">
      <title
         id="title4214">0-&gt;11</title>
      <path
         d="m 253.868,-108.124 c -15.036,-9.152 -33.735,-20.534 -49.928,-30.391"
         id="path4216"
         inkscape:connector-curvature="0"
         style="fill:none;stroke:#000000" />
      <polygon
         points="203.782,-138.611 203.782,-138.611 203.782,-138.611 199.511,-141.21 206.122,-142.455 195.24,-143.81 195.24,-143.81 195.24,-143.81 201.443,-134.767 199.511,-141.21 "
         id="polygon4218"
         style="fill:#000000;stroke:#000000" />
    </g>
    <!-- 1 -->
    <g
       id="node2"
       class="node">
      <title
         id="title4221">1</title>
      <polygon
         points="551.5,0 551.5,-36 551.5,-36 428.5,-36 428.5,0 "
         id="polygon4223"
         style="fill:none;stroke:#000000" />
      <text
         x="490"
         y="-14.3"
         font-size="14.00"
         id="text4225"
         style="font-size:14px;font-family:Times, serif;text-anchor:middle">eastereig.__main__</text>
    </g>
    <!-- 1&#45;&gt;0 -->
    <g
       id="edge6"
       class="edge">
      <title
         id="title4228">1-&gt;0</title>
      <path
         d="M 439.383,-36.0344 C 404.184,-47.8805 357.79,-63.4937 324.508,-74.6945"
         id="path4230"
         inkscape:connector-curvature="0"
         style="fill:none;stroke:#000000" />
      <polygon
         points="324.104,-74.8303 324.104,-74.8303 324.104,-74.8303 319.365,-76.4251 325.539,-79.0953 314.626,-78.02 314.626,-78.02 314.626,-78.02 322.669,-70.5653 319.365,-76.4251 "
         id="polygon4232"
         style="fill:#000000;stroke:#000000" />
    </g>
    <!-- 1&#45;&gt;7 -->
    <g
       id="edge7"
       class="edge">
      <title
         id="title4235">1-&gt;7</title>
      <path
         d="m 490,-36.1285 c 0,-24.2013 0,-68.6605 0,-97.4785"
         id="path4237"
         inkscape:connector-curvature="0"
         style="fill:none;stroke:#000000" />
      <polygon
         points="490,-133.811 490,-133.811 490,-133.811 490,-138.811 494.5,-133.811 490,-143.811 490,-143.811 490,-143.811 485.5,-133.811 490,-138.811 "
         id="polygon4239"
         style="fill:#000000;stroke:#000000" />
    </g>
    <!-- 8 -->
    <g
       id="node9"
       class="node">
      <title
         id="title4242">8</title>
      <polygon
         points="703,-72 703,-108 703,-108 587,-108 587,-72 "
         id="polygon4244"
         style="fill:none;stroke:#000000" />
      <text
         x="645"
         y="-86.300003"
         font-size="14.00"
         id="text4246"
         style="font-size:14px;font-family:Times, serif;text-anchor:middle">eastereig.lda_func</text>
    </g>
    <!-- 1&#45;&gt;8 -->
    <g
       id="edge8"
       class="edge">
      <title
         id="title4249">1-&gt;8</title>
      <path
         d="m 527.917,-36.1239 c 21.096,-9.5269 47.539,-21.4693 69.956,-31.5928"
         id="path4251"
         inkscape:connector-curvature="0"
         style="fill:none;stroke:#000000" />
      <polygon
         points="598.092,-67.8158 598.092,-67.8158 598.092,-67.8158 602.649,-69.8737 599.944,-63.7146 607.206,-71.9317 607.206,-71.9317 607.206,-71.9317 596.24,-71.9169 602.649,-69.8737 "
         id="polygon4253"
         style="fill:#000000;stroke:#000000" />
    </g>
    <!-- 1&#45;&gt;9 -->
    <g
       id="edge9"
       class="edge">
      <title
         id="title4256">1-&gt;9</title>
      <path
         d="M 477.576,-36.1285 C 459.635,-60.8628 426.345,-106.758 405.505,-135.488"
         id="path4258"
         inkscape:connector-curvature="0"
         style="fill:none;stroke:#000000" />
      <polygon
         points="405.34,-135.716 405.34,-135.716 405.34,-135.716 402.404,-139.763 408.982,-138.358 399.468,-143.811 399.468,-143.811 399.468,-143.811 401.697,-133.074 402.404,-139.763 "
         id="polygon4260"
         style="fill:#000000;stroke:#000000" />
    </g>
    <!-- 12 -->
    <g
       id="node13"
       class="node">
      <title
         id="title4263">12</title>
      <polygon
         points="497,-216 497,-252 497,-252 405,-252 405,-216 "
         id="polygon4265"
         style="fill:none;stroke:#000000" />
      <text
         x="451"
         y="-230.3"
         font-size="14.00"
         id="text4267"
         style="font-size:14px;font-family:Times, serif;text-anchor:middle">eastereig.utils</text>
    </g>
    <!-- 1&#45;&gt;12 -->
    <g
       id="edge10"
       class="edge">
      <title
         id="title4270">1-&gt;12</title>
      <path
         d="M 503.895,-36.4324 C 526.512,-67.0809 566.167,-131.924 539,-180 c -7.485,-13.247 -19.755,-23.55 -32.788,-31.401"
         id="path4272"
         inkscape:connector-curvature="0"
         style="fill:none;stroke:#000000" />
      <polygon
         points="505.859,-211.597 505.859,-211.597 505.859,-211.597 501.487,-214.024 508.043,-215.532 497.116,-216.451 497.116,-216.451 497.116,-216.451 503.675,-207.663 501.487,-214.024 "
         id="polygon4274"
         style="fill:#000000;stroke:#000000" />
    </g>
    <!-- 2 -->
    <g
       id="node3"
       class="node">
      <title
         id="title4277">2</title>
    </g>
    <!-- 3 -->
    <g
       id="node4"
       class="node">
      <title
         id="title4284">3</title>
      <polygon
         points="348.5,-216 348.5,-252 348.5,-252 215.5,-252 215.5,-216 "
         id="polygon4286"
         style="fill:none;stroke:#000000" />
      <text
         x="282"
         y="-230.3"
         font-size="14.00"
         id="text4288"
         style="font-size:14px;font-family:Times, serif;text-anchor:middle">eastereig._petsc_utils</text>
    </g>
    <!-- 4 -->
    <g
       id="node5"
       class="node">
      <title
         id="title4291">4</title>
      <polygon
         points="108,-216 108,-252 108,-252 0,-252 0,-216 "
         id="polygon4293"
         style="fill:none;stroke:#000000" />
      <text
         x="54"
         y="-230.3"
         font-size="14.00"
         id="text4295"
         style="font-size:14px;font-family:Times, serif;text-anchor:middle">eastereig.adapter</text>
    </g>
    <!-- 5&#45;&gt;0 -->
    <g
       id="edge11"
       class="edge">
      <title
         id="title4298">5-&gt;0</title>
      <path
         d="m 287.895,-143.896 c 0.806,7.687 1.042,16.95 0.709,25.561"
         id="path4300"
         inkscape:connector-curvature="0"
         style="fill:none;stroke:#000000" />
      <polygon
         points="288.6,-118.28 288.6,-118.28 288.6,-118.28 288.258,-113.292 284.111,-118.588 287.916,-108.303 287.916,-108.303 287.916,-108.303 293.09,-117.972 288.258,-113.292 "
         id="polygon4302"
         style="fill:#000000;stroke:#000000" />
    </g>
    <!-- 5&#45;&gt;3 -->
    <g
       id="edge12"
       class="edge">
      <title
         id="title4305">5-&gt;3</title>
      <path
         d="m 282,-180.303 c 0,-7.714 0,-16.985 0,-25.585"
         id="path4307"
         inkscape:connector-curvature="0"
         style="fill:none;stroke:#000000" />
      <polygon
         points="282,-205.896 282,-205.896 282,-205.896 282,-210.896 286.5,-205.896 282,-215.896 282,-215.896 282,-215.896 277.5,-205.896 282,-210.896 "
         id="polygon4309"
         style="fill:#000000;stroke:#000000" />
    </g>
    <!-- 5&#45;&gt;12 -->
    <g
       id="edge13"
       class="edge">
      <title
         id="title4312">5-&gt;12</title>
      <path
         d="m 323.342,-180.124 c 23.206,-9.612 52.348,-21.683 76.928,-31.863"
         id="path4314"
         inkscape:connector-curvature="0"
         style="fill:none;stroke:#000000" />
      <polygon
         points="400.553,-212.105 400.553,-212.105 400.553,-212.105 405.173,-214.018 402.275,-207.947 409.792,-215.932 409.792,-215.932 409.792,-215.932 398.831,-216.262 405.173,-214.018 "
         id="polygon4316"
         style="fill:#000000;stroke:#000000" />
    </g>
    <!-- 6 -->
    <g
       id="node7"
       class="node">
      <title
         id="title4319">6</title>
      <polygon
         points="344.5,0 344.5,-36 344.5,-36 219.5,-36 219.5,0 "
         id="polygon4321"
         style="fill:none;stroke:#000000" />
      <text
         x="282"
         y="-14.3"
         font-size="14.00"
         id="text4323"
         style="font-size:14px;font-family:Times, serif;text-anchor:middle">eastereig.eigSolvers</text>
    </g>
    <!-- 6&#45;&gt;0 -->
    <g
       id="edge14"
       class="edge">
      <title
         id="title4326">6-&gt;0</title>
      <path
         d="m 282,-36.3034 c 0,-7.7139 0,-16.9841 0,-25.5842"
         id="path4328"
         inkscape:connector-curvature="0"
         style="fill:none;stroke:#000000" />
      <polygon
         points="282,-61.8957 282,-61.8957 282,-61.8957 282,-66.8957 286.5,-61.8957 282,-71.8957 282,-71.8957 282,-71.8957 277.5,-61.8956 282,-66.8957 "
         id="polygon4330"
         style="fill:#000000;stroke:#000000" />
    </g>
    <!-- 7&#45;&gt;12 -->
    <g
       id="edge15"
       class="edge">
      <title
         id="title4333">7-&gt;12</title>
      <path
         d="m 480.36,-180.303 c -4.487,-8.053 -9.919,-17.803 -14.884,-26.715"
         id="path4335"
         inkscape:connector-curvature="0"
         style="fill:none;stroke:#000000" />
      <polygon
         points="465.397,-207.16 465.397,-207.16 465.397,-207.16 462.963,-211.528 469.328,-209.35 460.53,-215.896 460.53,-215.896 460.53,-215.896 461.466,-204.97 462.963,-211.528 "
         id="polygon4337"
         style="fill:#000000;stroke:#000000" />
    </g>
    <!-- 10&#45;&gt;0 -->
    <g
       id="edge16"
       class="edge">
      <title
         id="title4340">10-&gt;0</title>
      <path
         d="m 95.0617,-149.844 c 6.0573,1.986 12.1733,4.006 17.9383,5.844 43.059,13.725 92.327,28.309 126.62,38.696"
         id="path4342"
         inkscape:connector-curvature="0"
         style="fill:none;stroke:#000000" />
      <polygon
         points="239.749,-105.264 239.749,-105.264 239.749,-105.264 244.533,-103.81 238.44,-100.959 249.317,-102.355 249.317,-102.355 249.317,-102.355 241.058,-109.57 244.533,-103.81 "
         id="polygon4344"
         style="fill:#000000;stroke:#000000" />
    </g>
    <!-- 10&#45;&gt;4 -->
    <g
       id="edge17"
       class="edge">
      <title
         id="title4347">10-&gt;4</title>
      <path
         d="m 54,-180.303 c 0,-7.714 0,-16.985 0,-25.585"
         id="path4349"
         inkscape:connector-curvature="0"
         style="fill:none;stroke:#000000" />
      <polygon
         points="54.0001,-205.896 54.0001,-205.896 54.0001,-205.896 54,-210.896 58.5001,-205.896 54,-215.896 54,-215.896 54,-215.896 49.5001,-205.896 54,-210.896 "
         id="polygon4351"
         style="fill:#000000;stroke:#000000" />
    </g>
    <!-- 10&#45;&gt;12 -->
    <g
       id="edge18"
       class="edge">
      <title
         id="title4354">10-&gt;12</title>
      <path
         d="m 95.0227,-177.625 c 3.0196,-0.868 6.0343,-1.672 8.9773,-2.375 110.467,-26.395 140.876,-17.89 253,-36 12.151,-1.963 25.157,-4.216 37.502,-6.427"
         id="path4356"
         inkscape:connector-curvature="0"
         style="fill:none;stroke:#000000" />
      <polygon
         points="394.841,-222.488 394.841,-222.488 394.841,-222.488 399.762,-223.377 395.642,-218.06 404.682,-224.266 404.682,-224.266 404.682,-224.266 394.041,-226.916 399.762,-223.377 "
         id="polygon4358"
         style="fill:#000000;stroke:#000000" />
    </g>
  </g>
</svg>
